<mxfile host="app.diagrams.net" agent="Mozilla/5.0 (Macintosh; Intel Mac OS X 10_15_7) AppleWebKit/537.36 (KHTML, like Gecko) Chrome/131.0.0.0 Safari/537.36" version="26.0.6">
  <diagram name="Page-1" id="pbxdad6auGje8-03So5E">
    <mxGraphModel dx="731" dy="751" grid="1" gridSize="10" guides="1" tooltips="1" connect="1" arrows="1" fold="1" page="1" pageScale="1" pageWidth="1169" pageHeight="827" math="0" shadow="0">
      <root>
        <mxCell id="0" />
        <mxCell id="1" parent="0" />
        <mxCell id="l5HGcEXFCVmNHIeKZVtS-14" style="edgeStyle=orthogonalEdgeStyle;rounded=0;orthogonalLoop=1;jettySize=auto;html=1;entryX=1;entryY=0.5;entryDx=0;entryDy=0;" edge="1" parent="1" source="l5HGcEXFCVmNHIeKZVtS-1" target="l5HGcEXFCVmNHIeKZVtS-2">
          <mxGeometry relative="1" as="geometry" />
        </mxCell>
        <mxCell id="l5HGcEXFCVmNHIeKZVtS-15" value="Makes transaction" style="edgeLabel;html=1;align=center;verticalAlign=middle;resizable=0;points=[];" vertex="1" connectable="0" parent="l5HGcEXFCVmNHIeKZVtS-14">
          <mxGeometry x="0.3091" y="2" relative="1" as="geometry">
            <mxPoint x="22" y="-2" as="offset" />
          </mxGeometry>
        </mxCell>
        <mxCell id="l5HGcEXFCVmNHIeKZVtS-1" value="User" style="shape=umlActor;verticalLabelPosition=bottom;verticalAlign=top;html=1;outlineConnect=0;" vertex="1" parent="1">
          <mxGeometry x="660" y="270" width="30" height="60" as="geometry" />
        </mxCell>
        <mxCell id="l5HGcEXFCVmNHIeKZVtS-3" style="edgeStyle=orthogonalEdgeStyle;rounded=0;orthogonalLoop=1;jettySize=auto;html=1;" edge="1" parent="1">
          <mxGeometry relative="1" as="geometry">
            <mxPoint x="220" y="310" as="targetPoint" />
            <mxPoint x="450" y="310" as="sourcePoint" />
          </mxGeometry>
        </mxCell>
        <mxCell id="l5HGcEXFCVmNHIeKZVtS-26" value="Request prediction" style="edgeLabel;html=1;align=center;verticalAlign=middle;resizable=0;points=[];" vertex="1" connectable="0" parent="l5HGcEXFCVmNHIeKZVtS-3">
          <mxGeometry x="0.1304" y="1" relative="1" as="geometry">
            <mxPoint as="offset" />
          </mxGeometry>
        </mxCell>
        <mxCell id="l5HGcEXFCVmNHIeKZVtS-5" style="edgeStyle=orthogonalEdgeStyle;rounded=0;orthogonalLoop=1;jettySize=auto;html=1;" edge="1" parent="1" source="l5HGcEXFCVmNHIeKZVtS-2" target="l5HGcEXFCVmNHIeKZVtS-7">
          <mxGeometry relative="1" as="geometry">
            <mxPoint x="490" y="370" as="targetPoint" />
          </mxGeometry>
        </mxCell>
        <mxCell id="l5HGcEXFCVmNHIeKZVtS-2" value="App" style="rounded=1;whiteSpace=wrap;html=1;absoluteArcSize=1;arcSize=14;strokeWidth=2;fillColor=#dae8fc;strokeColor=#6c8ebf;" vertex="1" parent="1">
          <mxGeometry x="450" y="275" width="80" height="50" as="geometry" />
        </mxCell>
        <mxCell id="l5HGcEXFCVmNHIeKZVtS-25" style="edgeStyle=orthogonalEdgeStyle;rounded=0;orthogonalLoop=1;jettySize=auto;html=1;entryX=0;entryY=0.5;entryDx=0;entryDy=0;" edge="1" parent="1">
          <mxGeometry relative="1" as="geometry">
            <mxPoint x="220" y="290" as="sourcePoint" />
            <mxPoint x="450" y="290" as="targetPoint" />
          </mxGeometry>
        </mxCell>
        <mxCell id="l5HGcEXFCVmNHIeKZVtS-27" value="Return prediction" style="edgeLabel;html=1;align=center;verticalAlign=middle;resizable=0;points=[];" vertex="1" connectable="0" parent="l5HGcEXFCVmNHIeKZVtS-25">
          <mxGeometry x="-0.2957" y="3" relative="1" as="geometry">
            <mxPoint as="offset" />
          </mxGeometry>
        </mxCell>
        <mxCell id="l5HGcEXFCVmNHIeKZVtS-4" value="Prediction Service" style="rounded=1;whiteSpace=wrap;html=1;absoluteArcSize=1;arcSize=14;strokeWidth=2;fillColor=#dae8fc;strokeColor=#6c8ebf;" vertex="1" parent="1">
          <mxGeometry x="140" y="275" width="80" height="50" as="geometry" />
        </mxCell>
        <mxCell id="l5HGcEXFCVmNHIeKZVtS-7" value="Real-time&lt;div&gt;Transport&lt;/div&gt;" style="strokeWidth=2;html=1;shape=mxgraph.flowchart.direct_data;whiteSpace=wrap;fillColor=#dae8fc;strokeColor=#6c8ebf;" vertex="1" parent="1">
          <mxGeometry x="445" y="374" width="90" height="50" as="geometry" />
        </mxCell>
        <mxCell id="l5HGcEXFCVmNHIeKZVtS-9" value="&lt;font style=&quot;font-size: 10px;&quot;&gt;Offline Store&lt;/font&gt;" style="strokeWidth=2;html=1;shape=mxgraph.flowchart.database;whiteSpace=wrap;fillColor=#dae8fc;strokeColor=#6c8ebf;" vertex="1" parent="1">
          <mxGeometry x="310" y="460" width="60" height="60" as="geometry" />
        </mxCell>
        <mxCell id="l5HGcEXFCVmNHIeKZVtS-19" style="edgeStyle=orthogonalEdgeStyle;rounded=0;orthogonalLoop=1;jettySize=auto;html=1;entryX=0.5;entryY=1;entryDx=0;entryDy=0;" edge="1" parent="1" source="l5HGcEXFCVmNHIeKZVtS-16" target="l5HGcEXFCVmNHIeKZVtS-4">
          <mxGeometry relative="1" as="geometry" />
        </mxCell>
        <mxCell id="l5HGcEXFCVmNHIeKZVtS-24" value="Inference" style="edgeLabel;html=1;align=center;verticalAlign=middle;resizable=0;points=[];" vertex="1" connectable="0" parent="l5HGcEXFCVmNHIeKZVtS-19">
          <mxGeometry y="1" relative="1" as="geometry">
            <mxPoint as="offset" />
          </mxGeometry>
        </mxCell>
        <mxCell id="l5HGcEXFCVmNHIeKZVtS-16" value="&lt;font style=&quot;font-size: 10px;&quot;&gt;Online Store&lt;/font&gt;" style="strokeWidth=2;html=1;shape=mxgraph.flowchart.database;whiteSpace=wrap;fillColor=#dae8fc;strokeColor=#6c8ebf;" vertex="1" parent="1">
          <mxGeometry x="150" y="369" width="60" height="60" as="geometry" />
        </mxCell>
        <mxCell id="l5HGcEXFCVmNHIeKZVtS-17" style="edgeStyle=orthogonalEdgeStyle;rounded=0;orthogonalLoop=1;jettySize=auto;html=1;entryX=1;entryY=0.5;entryDx=0;entryDy=0;entryPerimeter=0;" edge="1" parent="1" source="l5HGcEXFCVmNHIeKZVtS-7" target="l5HGcEXFCVmNHIeKZVtS-16">
          <mxGeometry relative="1" as="geometry" />
        </mxCell>
        <mxCell id="l5HGcEXFCVmNHIeKZVtS-20" value="Streamed features" style="edgeLabel;html=1;align=center;verticalAlign=middle;resizable=0;points=[];" vertex="1" connectable="0" parent="l5HGcEXFCVmNHIeKZVtS-17">
          <mxGeometry x="-0.0667" y="1" relative="1" as="geometry">
            <mxPoint as="offset" />
          </mxGeometry>
        </mxCell>
        <mxCell id="l5HGcEXFCVmNHIeKZVtS-18" style="edgeStyle=orthogonalEdgeStyle;rounded=0;orthogonalLoop=1;jettySize=auto;html=1;entryX=0.5;entryY=1;entryDx=0;entryDy=0;entryPerimeter=0;" edge="1" parent="1" source="l5HGcEXFCVmNHIeKZVtS-9" target="l5HGcEXFCVmNHIeKZVtS-16">
          <mxGeometry relative="1" as="geometry" />
        </mxCell>
        <mxCell id="l5HGcEXFCVmNHIeKZVtS-23" value="materialise batch features" style="edgeLabel;html=1;align=center;verticalAlign=middle;resizable=0;points=[];" vertex="1" connectable="0" parent="l5HGcEXFCVmNHIeKZVtS-18">
          <mxGeometry x="-0.0435" y="1" relative="1" as="geometry">
            <mxPoint as="offset" />
          </mxGeometry>
        </mxCell>
        <mxCell id="l5HGcEXFCVmNHIeKZVtS-22" style="edgeStyle=orthogonalEdgeStyle;rounded=0;orthogonalLoop=1;jettySize=auto;html=1;entryX=1;entryY=0.5;entryDx=0;entryDy=0;entryPerimeter=0;exitX=0.5;exitY=1;exitDx=0;exitDy=0;exitPerimeter=0;" edge="1" parent="1" source="l5HGcEXFCVmNHIeKZVtS-7" target="l5HGcEXFCVmNHIeKZVtS-9">
          <mxGeometry relative="1" as="geometry" />
        </mxCell>
        <mxCell id="l5HGcEXFCVmNHIeKZVtS-28" value="Batch features" style="edgeLabel;html=1;align=center;verticalAlign=middle;resizable=0;points=[];" vertex="1" connectable="0" parent="l5HGcEXFCVmNHIeKZVtS-22">
          <mxGeometry x="-0.3494" y="-1" relative="1" as="geometry">
            <mxPoint as="offset" />
          </mxGeometry>
        </mxCell>
      </root>
    </mxGraphModel>
  </diagram>
</mxfile>
